<svg width="101" height="31" viewBox="0 0 101 31" xmlns="http://www.w3.org/2000/svg">
<path id="Vector" d="M3.0303 30.7765H0V7.48108H2.93561V9.9432H3.0303C3.59848 8.99623 4.45076 8.33336 5.39773 7.85987C6.43939 7.38639 7.48106 7.10229 8.61742 7.10229C9.75379 7.10229 10.8902 7.29169 11.8371 7.76517C12.7841 8.14396 13.6364 8.80684 14.2992 9.46972C14.9621 10.2273 15.5303 11.0796 15.9091 12.0265C16.2879 12.9735 16.4773 14.1099 16.4773 15.2462C16.4773 16.3826 16.2879 17.4243 15.9091 18.3712C15.5303 19.3182 15.0568 20.2652 14.2992 20.9281C13.6364 21.6856 12.7841 22.2538 11.8371 22.6326C10.8902 23.1061 9.75379 23.2955 8.61742 23.2955C7.57576 23.2955 6.53409 23.1061 5.49242 22.5379C4.45076 21.9697 3.69318 21.4015 3.125 20.4546H3.0303V30.7765ZM14.1098 15.2462C14.1098 14.4887 14.0152 13.7311 13.7311 13.0682C13.5417 12.4053 13.1629 11.8371 12.6894 11.269C12.2159 10.7955 11.6477 10.322 10.9848 10.0379C10.322 9.75381 9.56439 9.56442 8.71212 9.56442C7.95455 9.56442 7.19697 9.75381 6.53409 10.0379C5.87121 10.322 5.30303 10.7008 4.82955 11.269C4.35606 11.8371 3.97727 12.4053 3.69318 13.0682C3.40909 13.7311 3.31439 14.4887 3.31439 15.2462C3.31439 16.0038 3.40909 16.7614 3.69318 17.4243C3.97727 18.0871 4.35606 18.6553 4.82955 19.2235C5.30303 19.697 5.87121 20.1705 6.53409 20.4546C7.29167 20.7387 8.04924 20.8334 8.80682 20.8334C9.65909 20.8334 10.4167 20.644 11.0795 20.3599C11.7424 20.0758 12.3106 19.697 12.7841 19.1288C13.2576 18.6553 13.5417 17.9924 13.8258 17.3296C14.0152 16.7614 14.1098 16.0038 14.1098 15.2462Z" />
<path id="Vector_2" d="M20.5492 7.48108V12.6894H23.2954C24.5265 12.6894 25.5681 12.7841 26.4204 13.0682C27.2727 13.3523 27.9356 13.6364 28.5037 14.1099C29.0719 14.5834 29.4507 15.0568 29.6401 15.7197C29.9242 16.3826 30.0189 17.0455 30.0189 17.803C30.0189 19.4129 29.4507 20.644 28.3143 21.5909C27.178 22.5379 25.4734 23.0114 23.2954 23.0114H17.4242V7.48108H20.5492ZM20.5492 20.7387H23.2954C24.4318 20.7387 25.284 20.5493 26.0416 20.1705C26.7045 19.7917 27.0833 19.0341 27.0833 17.8977C27.0833 17.3296 26.9886 16.8561 26.7992 16.4773C26.6098 16.0985 26.3257 15.8144 25.9469 15.625C25.5681 15.4356 25.1893 15.2462 24.7159 15.1515C24.2424 15.0568 23.7689 15.0568 23.2007 15.0568H20.6439V20.7387H20.5492ZM34.8484 7.48108V23.0114H31.8181V7.48108H34.8484Z" />
<path id="Vector_3" d="M44.6023 7.67045C45.7386 7.67045 46.7803 7.85985 47.7273 8.23864C48.6743 8.61742 49.5265 9.09091 50.1894 9.84848C50.8523 10.5114 51.4205 11.3636 51.7993 12.3106C52.178 13.2576 52.3674 14.3939 52.3674 15.5303C52.3674 16.7614 52.178 17.803 51.7046 18.8447C51.3258 19.7917 50.6629 20.6439 50 21.3068C49.2424 21.9697 48.3902 22.5379 47.4432 22.9167C46.4962 23.2955 45.4546 23.4848 44.3182 23.4848C43.1818 23.4848 42.1402 23.2955 41.1932 22.9167C40.2462 22.5379 39.394 22.0644 38.7311 21.3068C38.0682 20.6439 37.5 19.7917 37.1212 18.75C36.7424 17.7083 36.4583 16.572 36.4583 15.3409C36.4583 14.9621 36.3636 14.678 36.3636 14.2992C36.3636 13.9205 36.3636 13.5417 36.3636 13.2576C36.4583 10.9848 36.7424 8.99621 37.2159 7.38636C37.6894 5.68182 38.3523 4.35606 39.2046 3.2197C40.0568 2.08333 41.1932 1.32576 42.519 0.757576C43.75 0.284091 45.3599 0 47.2538 0H51.8939V2.46212H47.2538C45.928 2.46212 44.697 2.65152 43.75 3.0303C42.803 3.40909 42.0455 3.88258 41.4773 4.54545C40.9091 5.20833 40.4356 6.06061 40.0568 7.00758C39.7727 7.95455 39.4886 8.99621 39.2993 10.2273C39.8674 9.4697 40.625 8.90152 41.572 8.42803C42.4243 7.95455 43.4659 7.67045 44.6023 7.67045ZM49.6212 15.5303C49.6212 14.7727 49.5265 14.0152 49.2424 13.3523C49.053 12.6894 48.6743 12.1212 48.2008 11.6477C47.822 11.1742 47.2538 10.7955 46.6856 10.5114C46.1174 10.2273 45.4546 10.1326 44.697 10.1326C44.0341 10.1326 43.3712 10.2273 42.7083 10.4167C42.0455 10.6061 41.572 10.9848 41.0985 11.3636C40.625 11.7424 40.2462 12.3106 39.9621 12.9735C39.678 13.6364 39.5833 14.3939 39.5833 15.2462C39.5833 16.0985 39.678 16.8561 39.9621 17.5189C40.2462 18.1818 40.5303 18.75 41.0038 19.3182C41.4773 19.7917 41.9508 20.1705 42.6136 20.4545C43.2765 20.7386 43.9394 20.8333 44.7917 20.8333C45.5493 20.8333 46.2121 20.7386 46.875 20.4545C47.4432 20.1705 48.0114 19.7917 48.3902 19.3182C48.7689 18.8447 49.1477 18.2765 49.3371 17.6136C49.5265 16.9508 49.6212 16.2879 49.6212 15.5303Z" />
<path id="Vector_4" d="M56.3448 23.0114H53.3145V7.48108H56.3448V13.6364H64.2046V7.48108H67.2349V23.0114H64.2046V16.0985H56.3448V23.0114Z" />
<path id="Vector_5" d="M80.9659 11.3637L72.1591 23.0114H69.1288V7.48108H72.1591V18.75L80.9659 7.48108H83.9962V23.0114H80.9659V11.3637Z" />
<path id="Vector_6" d="M89.0152 13.7311C89.7728 13.7311 90.5303 13.8258 91.1932 13.9205L96.2122 7.57578H99.5266L93.8447 14.7727C94.697 15.0568 95.4546 15.5303 96.1175 16.0038C96.7803 16.4773 97.3485 17.1402 97.822 17.803C98.2955 18.4659 98.769 19.3182 99.1478 20.1705C99.5266 21.0227 99.8106 22.0644 100.095 23.1061H96.7803C96.4963 21.7803 96.1175 20.7387 95.7387 19.8864C95.2652 19.0341 94.7917 18.3712 94.1288 17.803C93.466 17.2349 92.8031 16.8561 91.9508 16.6667C91.0985 16.4773 90.1516 16.2879 89.1099 16.2879V23.1061H86.0796V7.48108H89.0152V13.7311Z"/>
</svg>
