<svg width="101" height="31"  xmlns="http://www.w3.org/2000/svg">
<path d="M3.0303 30.7765H0V7.48108H2.93561V9.9432H3.0303C3.59848 8.99623 4.45076 8.33336 5.39773 7.85987C6.43939 7.38639 7.48106 7.10229 8.61742 7.10229C9.75379 7.10229 10.8902 7.29169 11.8371 7.76517C12.7841 8.14396 13.6364 8.80684 14.2992 9.46972C14.9621 10.2273 15.5303 11.0796 15.9091 12.0265C16.2879 12.9735 16.4773 14.1099 16.4773 15.2462C16.4773 16.3826 16.2879 17.4243 15.9091 18.3712C15.5303 19.3182 15.0568 20.2652 14.2992 20.9281C13.6364 21.6856 12.7841 22.2538 11.8371 22.6326C10.8902 23.1061 9.75379 23.2955 8.61742 23.2955C7.57576 23.2955 6.53409 23.1061 5.49242 22.5379C4.45076 21.9697 3.69318 21.4015 3.125 20.4546H3.0303V30.7765ZM14.1098 15.2462C14.1098 14.4887 14.0152 13.7311 13.7311 13.0682C13.5417 12.4053 13.1629 11.8371 12.6894 11.269C12.2159 10.7955 11.6477 10.322 10.9848 10.0379C10.322 9.75381 9.56439 9.56442 8.71212 9.56442C7.95455 9.56442 7.19697 9.75381 6.53409 10.0379C5.87121 10.322 5.30303 10.7008 4.82955 11.269C4.35606 11.8371 3.97727 12.4053 3.69318 13.0682C3.40909 13.7311 3.31439 14.4887 3.31439 15.2462C3.31439 16.0038 3.40909 16.7614 3.69318 17.4243C3.97727 18.0871 4.35606 18.6553 4.82955 19.2235C5.30303 19.697 5.87121 20.1705 6.53409 20.4546C7.29167 20.7387 8.04924 20.8334 8.80682 20.8334C9.65909 20.8334 10.4167 20.644 11.0795 20.3599C11.7424 20.0758 12.3106 19.697 12.7841 19.1288C13.2576 18.6553 13.5417 17.9924 13.8258 17.3296C14.0152 16.7614 14.1098 16.0038 14.1098 15.2462Z" fill="white"/>
</svg>
