<svg width="27" height="28" viewBox="0 0 27 28" fill="none" xmlns="http://www.w3.org/2000/svg">
<path d="M26.4862 3.68865L18.1521 26.2003C17.6257 27.6227 16.1095 28.3535 14.7669 27.8313C14.4345 27.6996 14.1328 27.5005 13.8811 27.2466C13.6293 26.9926 13.4328 26.6893 13.3039 26.3557L10.6622 19.6778C10.1657 18.3959 9.1816 17.363 7.92522 16.8051L1.56651 14.0317C0.243533 13.4535 -0.358459 11.8505 0.219733 10.4506C0.356494 10.1125 0.558934 9.80495 0.815339 9.54566C1.07174 9.28637 1.37702 9.08051 1.71351 8.93997L23.1556 0.190096C24.5094 -0.362896 26.0116 0.331494 26.5086 1.74267C26.7284 2.36707 26.7186 3.05866 26.4862 3.68865Z" fill="#24A2DF"/>
</svg>
