<svg width="40" height="40" viewBox="0 0 40 40"  xmlns="http://www.w3.org/2000/svg">
<path fill-rule="evenodd" clip-rule="evenodd" d="M8.68247 0.624271C16.2045 -0.20809 23.7955 -0.20809 31.3175 0.624271C35.4823 1.09028 38.8423 4.36452 39.331 8.53679C40.223 16.1523 40.223 23.8457 39.331 31.4613C39.0837 33.4886 38.1577 35.3732 36.7032 36.8094C35.2487 38.2456 33.3509 39.1492 31.3175 39.3738C23.7957 40.2087 16.2043 40.2087 8.68247 39.3738C6.64909 39.1492 4.7513 38.2456 3.29679 36.8094C1.84228 35.3732 0.916316 33.4886 0.669028 31.4613C-0.223009 23.8465 -0.223009 16.154 0.669028 8.53922C0.916209 6.51223 1.84182 4.62797 3.29584 3.19182C4.74987 1.75567 6.6471 0.851802 8.68004 0.626698L8.68247 0.624271ZM20 7.88146C20.4836 7.88146 20.9474 8.07325 21.2894 8.41464C21.6313 8.75602 21.8234 9.21904 21.8234 9.70183V18.1799H30.3158C30.7995 18.1799 31.2633 18.3717 31.6052 18.7131C31.9472 19.0544 32.1393 19.5175 32.1393 20.0002C32.1393 20.483 31.9472 20.9461 31.6052 21.2874C31.2633 21.6288 30.7995 21.8206 30.3158 21.8206H21.8234V30.2987C21.8234 30.7815 21.6313 31.2445 21.2894 31.5859C20.9474 31.9272 20.4836 32.119 20 32.119C19.5164 32.119 19.0526 31.9272 18.7106 31.5859C18.3687 31.2445 18.1765 30.7815 18.1765 30.2987V21.8206H9.68415C9.20054 21.8206 8.73674 21.6288 8.39478 21.2874C8.05282 20.9461 7.8607 20.483 7.8607 20.0002C7.8607 19.5175 8.05282 19.0544 8.39478 18.7131C8.73674 18.3717 9.20054 18.1799 9.68415 18.1799H18.1765V9.70183C18.1765 9.21904 18.3687 8.75602 18.7106 8.41464C19.0526 8.07325 19.5164 7.88146 20 7.88146Z" />
</svg>
