<svg width="17" height="16" viewBox="0 0 17 16"  xmlns="http://www.w3.org/2000/svg">

<g id="comment icon">
<path id="Comment" d="M2.73695 12.6321C2.01107 12.6321 1.31491 12.3437 0.801634 11.8304C0.288356 11.3172 0 10.621 0 9.89513V2.73695C0 2.01107 0.288356 1.31491 0.801634 0.801634C1.31491 0.288356 2.01107 0 2.73695 0H14.1058C14.4652 0 14.8211 0.0707933 15.1532 0.208338C15.4853 0.345882 15.787 0.547485 16.0411 0.801634C16.2953 1.05578 16.4969 1.3575 16.6344 1.68956C16.772 2.02163 16.8428 2.37753 16.8428 2.73695V9.89513C16.8428 10.2545 16.772 10.6104 16.6344 10.9425C16.4969 11.2746 16.2953 11.5763 16.0411 11.8304C15.787 12.0846 15.4853 12.2862 15.1532 12.4237C14.8211 12.5613 14.4652 12.6321 14.1058 12.6321H9.27363L5.05283 15.7901C4.89643 15.9072 4.71055 15.9784 4.51598 15.9958C4.3214 16.0132 4.12582 15.9762 3.95111 15.8888C3.7764 15.8014 3.62946 15.6671 3.52672 15.5009C3.42399 15.3348 3.36951 15.1433 3.3694 14.948V12.6321H2.73695ZM8.85424 11.3689H14.1058C14.4967 11.3689 14.8715 11.2136 15.1479 10.9372C15.4243 10.6608 15.5796 10.286 15.5796 9.89513V2.73695C15.5796 2.34609 15.4243 1.97124 15.1479 1.69486C14.8715 1.41848 14.4967 1.26321 14.1058 1.26321H2.73695C2.34609 1.26321 1.97124 1.41848 1.69486 1.69486C1.41848 1.97124 1.26321 2.34609 1.26321 2.73695V9.89513C1.26321 10.7086 1.92344 11.3689 2.73695 11.3689H4.63092V14.5269L8.85424 11.3689Z"/>
</g>
</svg>
