<svg width="22" height="20" viewBox="0 0 22 20" xmlns="http://www.w3.org/2000/svg">
<path fill-rule="evenodd" clip-rule="evenodd" d="M6.17318 0.761208C8.00043 0.00433283 10.0111 -0.1937 11.9509 0.192152C13.8907 0.578003 15.6725 1.53041 17.0711 2.92893C18.4696 4.32746 19.422 6.10929 19.8078 8.04909C20.1937 9.9889 19.9957 11.9996 19.2388 13.8268C18.4819 15.6541 17.2002 17.2159 15.5557 18.3147C13.9112 19.4135 11.9778 20 10 20C8.47087 20 7.01805 19.6567 5.71884 19.0397L1.13306 19.9807C0.822428 20.0445 0.500554 19.9479 0.27633 19.7237C0.0521055 19.4994 -0.0444709 19.1776 0.0192738 18.8669L0.960332 14.2812C0.343352 12.9821 1.58405e-05 11.5301 1.58405e-05 9.99999C1.58405e-05 8.02218 0.586505 6.08879 1.68532 4.4443C2.78413 2.79981 4.34592 1.51808 6.17318 0.761208ZM11.5828 2.04269C10.009 1.72964 8.37771 1.89031 6.89522 2.50438C5.41273 3.11844 4.14562 4.15833 3.25413 5.49254C2.36264 6.82675 1.88681 8.39536 1.88681 9.99999C1.88681 11.3435 2.21149 12.6068 2.78745 13.7192C2.88676 13.911 2.91725 14.131 2.87384 14.3426L2.15512 17.8449L5.65741 17.1262C5.86898 17.0827 6.08905 17.1132 6.28084 17.2125C7.39311 17.7885 8.65747 18.1132 10 18.1132C11.6046 18.1132 13.1732 17.6374 14.5075 16.7459C15.8417 15.8544 16.8816 14.5873 17.4956 13.1048C18.1097 11.6223 18.2704 9.991 17.9573 8.41719C17.6443 6.84338 16.8716 5.39775 15.7369 4.2631C14.6023 3.12844 13.1566 2.35574 11.5828 2.04269Z" />
</svg>
