<svg width="24" height="20" viewBox="0 0 24 20"  xmlns="http://www.w3.org/2000/svg">
<path fill-rule="evenodd" clip-rule="evenodd" d="M6.73558 1.25849e-06C7.81646 -0.000659757 8.88161 0.259084 9.84086 0.757254C10.4564 1.07693 11.0167 1.48874 11.5033 1.97655C12.7217 0.756359 14.4077 1.25849e-06 16.2698 1.25849e-06C19.9897 1.25849e-06 23.0054 3.01569 23.0054 6.73558C23.0054 9.99802 21.0922 12.9973 18.8359 15.2758C16.5708 17.5633 13.804 19.2842 11.7894 19.9536C11.6033 20.0155 11.4021 20.0155 11.216 19.9536C9.20145 19.2842 6.43461 17.5633 4.16951 15.2758C1.91325 12.9973 0 9.99802 0 6.73558C0 3.01591 3.01599 0.000348428 6.73558 1.25849e-06Z" />
</svg>
