<svg width="19" height="16" viewBox="0 0 19 16"  xmlns="http://www.w3.org/2000/svg">
<path fill-rule="evenodd" clip-rule="evenodd" d="M5.38846 1.0068e-06C6.25317 -0.000527806 7.10529 0.207267 7.87269 0.605803C8.36512 0.861544 8.81337 1.19099 9.20268 1.58124C10.1774 0.605087 11.5262 1.0068e-06 13.0159 1.0068e-06C15.9918 1.0068e-06 18.4043 2.41255 18.4043 5.38846C18.4043 7.99841 16.8737 10.3978 15.0687 12.2207C13.2566 14.0506 11.0432 15.4274 9.43149 15.9629C9.28261 16.0124 9.12171 16.0124 8.97283 15.9629C7.36116 15.4274 5.14769 14.0506 3.33561 12.2207C1.5306 10.3978 0 7.99841 0 5.38846C0 2.41273 2.41279 0.000278743 5.38846 1.0068e-06ZM7.2023 1.89665C6.64216 1.60575 6.02016 1.4541 5.38898 1.45455C3.21639 1.45455 1.45455 3.21588 1.45455 5.38846C1.45455 7.4397 2.67829 9.48962 4.36917 11.1972C5.9604 12.8042 7.85541 13.9953 9.20216 14.5013C10.5489 13.9953 12.4439 12.8042 14.0352 11.1972C15.726 9.48962 16.9498 7.4397 16.9498 5.38846C16.9498 3.21588 15.1884 1.45455 13.0159 1.45455C11.686 1.45455 10.5097 2.11386 9.79687 3.12648C9.66056 3.32012 9.43851 3.43528 9.2017 3.43513C8.9649 3.43498 8.743 3.31955 8.60693 3.12574C8.24426 2.60915 7.76245 2.18756 7.2023 1.89665Z"/>
</svg>
