<svg width="25" height="21" viewBox="0 0 25 21"  xmlns="http://www.w3.org/2000/svg">
<path fill-rule="evenodd" clip-rule="evenodd" d="M7.53964 0.791669C8.62251 0.791011 9.6896 1.05123 10.6506 1.55031C11.256 1.86474 11.8082 2.26815 12.2894 2.74523C13.5079 1.53846 15.186 0.791669 17.0379 0.791669C20.7646 0.791669 23.7858 3.81287 23.7858 7.53956C23.7858 10.8042 21.8718 13.8012 19.6211 16.0741C17.3612 18.3563 14.5999 20.0744 12.5863 20.7435C12.3931 20.8077 12.1844 20.8077 11.9913 20.7435C9.97764 20.0744 7.21633 18.3563 4.95644 16.0741C2.70573 13.8012 0.791748 10.8042 0.791748 7.53956C0.791748 3.81297 3.8128 0.791819 7.53937 0.791669M7.53937 0.791669C7.53924 0.791669 7.53911 0.791669 7.53898 0.791669L7.53964 1.73507V0.791669M9.781 3.22476C9.08884 2.8653 8.32025 2.67791 7.54031 2.67846L7.53964 2.67846C4.855 2.67846 2.67854 4.85492 2.67854 7.53956C2.67854 10.0794 4.19449 12.6231 6.29715 14.7465C8.27041 16.7393 10.6186 18.2166 12.2888 18.8472C13.9589 18.2166 16.3071 16.7393 18.2804 14.7465C20.3831 12.6231 21.899 10.0794 21.899 7.53956C21.899 4.85492 19.7226 2.67846 17.0379 2.67846C15.3947 2.67846 13.9411 3.4931 13.0602 4.74448C12.8834 4.99567 12.5954 5.14504 12.2882 5.14485C11.981 5.14465 11.6932 4.99492 11.5167 4.74351C11.0685 4.10518 10.4732 3.58423 9.781 3.22476Z" />
</svg>
