<svg width="24" height="24" viewBox="0 0 24 24" xmlns="http://www.w3.org/2000/svg">
<path d="M12 0.5C12.0715 0.5 12.1406 0.525527 12.1949 0.571983C12.1949 0.571995 12.195 0.572007 12.195 0.57202L23.4999 10.262V21.6C23.4999 22.1039 23.2998 22.5872 22.9435 22.9435C22.5871 23.2998 22.1039 23.5 21.6 23.5H15.2C15.1204 23.5 15.0441 23.4684 14.9878 23.4121C14.9316 23.3559 14.9 23.2796 14.9 23.2V18.4C14.9 17.6309 14.5944 16.8933 14.0506 16.3494C13.5067 15.8056 12.7691 15.5 12 15.5C11.2308 15.5 10.4932 15.8056 9.94937 16.3494C9.40551 16.8933 9.09998 17.6309 9.09998 18.4V23.2C9.09998 23.2796 9.06837 23.3559 9.01211 23.4121C8.95585 23.4684 8.87954 23.5 8.79998 23.5H2.39999C1.89608 23.5 1.41281 23.2998 1.0565 22.9435C0.700177 22.5872 0.5 22.1039 0.5 21.6V10.262L11.805 0.57202C11.805 0.572007 11.805 0.571995 11.805 0.571983C11.8594 0.525527 11.9285 0.5 12 0.5Z"/>
</svg>
