<svg width="28" height="24" viewBox="0 0 28 24" fill="none" xmlns="http://www.w3.org/2000/svg">
<rect width="28" height="24" fill="white"/>
<g id="&#208;&#147;&#208;&#187;&#208;&#176;&#208;&#178;&#208;&#189;&#208;&#176;&#209;&#143;" clip-path="url(#clip0_0_1)">
<rect width="360" height="1000" transform="translate(-298 -892)" fill="white"/>
<g id="Component 4">
</g>
<g id="Group 27">
<g id="&#194;&#160;&#208;&#152;&#208;&#186;&#208;&#190;&#208;&#189;&#208;&#186;&#208;&#176;">
<circle id="Ellipse 3" cx="14" cy="12" r="24" fill="#24A2DF"/>
</g>
<path id="Vector" fill-rule="evenodd" clip-rule="evenodd" d="M9.8 2.7106C9.709 4.9065 9.8 18.7225 9.8 18.7225C10.024 18.7225 10.248 18.7573 10.4636 18.8255L18.2 21.2889V5.27695C17.9744 5.27689 17.7504 5.24212 17.5364 5.17397L9.8 2.7106ZM9.1364 0.102789C9.56717 -0.0342631 10.0328 -0.0342631 10.4636 0.102789L18.2 2.56616L25.6046 0.208439C25.8781 0.121362 26.1694 0.0976127 26.4545 0.139149C26.7395 0.180685 27.0101 0.286316 27.244 0.447343C27.478 0.608369 27.6685 0.820181 27.7999 1.06533C27.9314 1.31048 27.9999 1.58195 28 1.85738V19.5423C28 19.9634 27.8612 20.3738 27.6034 20.7153C27.3456 21.0569 26.9818 21.3123 26.5636 21.4453L18.8636 23.8967C18.4324 24.0344 17.9676 24.0344 17.5364 23.8967L9.8 21.4333L2.3954 23.791C2.12186 23.8781 1.83057 23.9019 1.54553 23.8603C1.2605 23.8188 0.989873 23.7132 0.755952 23.5521C0.52203 23.3911 0.331506 23.1793 0.200076 22.9341C0.0686463 22.689 7.10412e-05 22.4175 0 22.1421V4.45716C4.07853e-05 4.03608 0.138792 3.62569 0.396596 3.28414C0.654399 2.94259 1.01818 2.68719 1.4364 2.55413L9.1364 0.102789Z" fill="white"/>
</g>
</g>
<defs>
<clipPath id="clip0_0_1">
<rect width="360" height="1000" fill="white" transform="translate(-298 -892)"/>
</clipPath>
</defs>
</svg>
