<svg width="32" height="24" viewBox="0 0 32 24" xmlns="http://www.w3.org/2000/svg">
<path d="M5.36 13.0909C7.264 13.0909 7.632 15.2727 10.688 15.2727C13.808 15.2727 14.032 13.0909 16.016 13.0909C17.92 13.0909 18.288 15.2727 21.344 15.2727C24.464 15.2727 24.688 13.0909 26.672 13.0909C28.16 13.0909 28.352 14.0727 29.888 14.8145C30.896 15.2945 31.968 14.2909 31.968 12.8291C31.968 11.6945 31.6 11.0182 30.944 10.7127C29.984 10.2327 29.104 8.74909 26.64 8.74909C23.52 8.74909 23.296 10.9309 21.312 10.9309C19.408 10.9309 19.04 8.74909 15.984 8.74909C12.864 8.74909 12.64 10.9309 10.656 10.9309C8.752 10.9309 8.384 8.74909 5.328 8.74909C2.864 8.74909 1.92 10.2982 1.04 10.7345C0.384 11.0182 0 11.6727 0 12.8509C0 14.3127 1.056 15.3164 2.064 14.8364C3.76 14.0509 3.824 13.0909 5.36 13.0909ZM26.672 17.4545C23.552 17.4545 23.328 19.6364 21.344 19.6364C19.44 19.6364 19.072 17.4545 16.016 17.4545C12.896 17.4545 12.656 19.6364 10.672 19.6364C8.688 19.6364 8.464 17.4545 5.344 17.4545C2.896 17.4545 1.904 19.0036 1.04 19.44C0.384 19.7455 0 20.4218 0 21.5782C0 23.04 1.056 24.0436 2.08 23.5636C3.712 22.7782 3.808 21.8182 5.344 21.8182C7.328 21.8182 7.552 24 10.672 24C13.792 24 14.032 21.8182 16.016 21.8182C17.92 21.8182 18.288 24 21.344 24C24.448 24 24.688 21.8182 26.672 21.8182C28.176 21.8182 28.368 22.8218 29.92 23.5636C30.928 24.0436 32 23.04 32 21.5782C32 20.4218 31.616 19.7673 30.96 19.44C30.112 19.0255 29.136 17.4545 26.672 17.4545ZM5.36 4.36364C7.264 4.36364 7.632 6.54545 10.688 6.54545C13.808 6.54545 14.032 4.36364 16.016 4.36364C17.92 4.36364 18.288 6.54545 21.344 6.54545C24.464 6.54545 24.688 4.36364 26.672 4.36364C28.16 4.36364 28.352 5.34545 29.888 6.08727C30.896 6.56727 31.968 5.56364 31.968 4.10182C31.968 2.96727 31.6 2.29091 30.944 1.98545C29.984 1.48364 29.104 0 26.64 0C23.52 0 23.296 2.18182 21.312 2.18182C19.408 2.18182 19.04 0 15.984 0C12.864 0 12.64 2.18182 10.656 2.18182C8.752 2.18182 8.384 0 5.328 0C2.864 0 1.92 1.54909 1.04 1.98545C0.384 2.29091 0 2.94546 0 4.12364C0 5.58546 1.056 6.58909 2.064 6.10909C3.76 5.32364 3.824 4.36364 5.36 4.36364Z" />
</svg>
