<svg width="28" height="20" viewBox="0 0 28 20" fill="none" xmlns="http://www.w3.org/2000/svg">
<g id="Vector">
<path d="M6 18C6 16.8954 6.89543 16 8 16H26C27.1046 16 28 16.8954 28 18C28 19.1046 27.1046 20 26 20H8C6.89543 20 6 19.1046 6 18Z" fill="white"/>
<path d="M6 10C6 8.89543 6.89543 8 8 8H26C27.1046 8 28 8.89543 28 10C28 11.1046 27.1046 12 26 12H8C6.89543 12 6 11.1046 6 10Z" fill="white"/>
<path d="M6 2C6 0.895431 6.89543 0 8 0H26C27.1046 0 28 0.895431 28 2C28 3.10457 27.1046 4 26 4H8C6.89543 4 6 3.10457 6 2Z" fill="white"/>
<path d="M4 18C4 19.1046 3.10457 20 2 20C0.89543 20 0 19.1046 0 18C0 16.8954 0.89543 16 2 16C3.10457 16 4 16.8954 4 18Z" fill="white"/>
<path d="M4 10C4 11.1046 3.10457 12 2 12C0.89543 12 0 11.1046 0 10C0 8.89543 0.89543 8 2 8C3.10457 8 4 8.89543 4 10Z" fill="white"/>
<path d="M4 2C4 3.10457 3.10457 4 2 4C0.89543 4 0 3.10457 0 2C0 0.89543 0.89543 0 2 0C3.10457 0 4 0.89543 4 2Z" fill="white"/>
</g>
</svg>
