<svg width="20" height="20" viewBox="0 0 20 20" fill="none" xmlns="http://www.w3.org/2000/svg">
<path d="M9.99998 0.666709L10.4333 0.160044C10.3126 0.0567575 10.1589 0 9.99998 0C9.84108 0 9.6874 0.0567575 9.56665 0.160044L9.99998 0.666709ZM0.666665 8.66669L0.233333 8.16003L0 8.36003V8.66669H0.666665ZM7.33332 19.3333V20C7.51013 20 7.6797 19.9298 7.80472 19.8047C7.92974 19.6797 7.99998 19.5101 7.99998 19.3333H7.33332ZM12.6666 19.3333H12C12 19.5101 12.0702 19.6797 12.1952 19.8047C12.3203 19.9298 12.4898 20 12.6666 20V19.3333ZM19.3333 8.66669H20V8.36003L19.7666 8.16003L19.3333 8.66669ZM2 20H7.33332V18.6667H2V20ZM19.7666 8.16003L10.4333 0.160044L9.56665 1.17337L18.9 9.17336L19.7666 8.16003ZM9.56665 0.160044L0.233333 8.16003L1.1 9.17336L10.4333 1.17337L9.56665 0.160044ZM7.99998 19.3333V15.3333H6.66665V19.3333H7.99998ZM12 15.3333V19.3333H13.3333V15.3333H12ZM12.6666 20H18V18.6667H12.6666V20ZM20 18V8.66669H18.6666V18H20ZM0 8.66669V18H1.33333V8.66669H0ZM9.99998 13.3333C10.5304 13.3333 11.0391 13.5441 11.4142 13.9191C11.7893 14.2942 12 14.8029 12 15.3333H13.3333C13.3333 14.4493 12.9821 13.6014 12.357 12.9763C11.7319 12.3512 10.884 12 9.99998 12V13.3333ZM9.99998 12C9.11592 12 8.26808 12.3512 7.64296 12.9763C7.01784 13.6014 6.66665 14.4493 6.66665 15.3333H7.99998C7.99998 14.8029 8.2107 14.2942 8.58577 13.9191C8.96084 13.5441 9.46955 13.3333 9.99998 13.3333V12ZM18 20C18.5304 20 19.0391 19.7893 19.4142 19.4142C19.7892 19.0391 20 18.5304 20 18H18.6666C18.6666 18.1768 18.5964 18.3464 18.4714 18.4714C18.3463 18.5964 18.1768 18.6667 18 18.6667V20ZM2 18.6667C1.82318 18.6667 1.65362 18.5964 1.52859 18.4714C1.40357 18.3464 1.33333 18.1768 1.33333 18H0C0 18.5304 0.210713 19.0391 0.585785 19.4142C0.960857 19.7893 1.46956 20 2 20V18.6667Z" fill="black"/>
</svg>
