<svg width="14" height="20" viewBox="0 0 14 20" fill="none" xmlns="http://www.w3.org/2000/svg">
<path fill-rule="evenodd" clip-rule="evenodd" d="M9.0887 0.793444C9.59673 0.28541 10.2858 0 11.0042 0C11.7227 0 12.4118 0.28541 12.9198 0.793444C13.4278 1.30148 13.7132 1.99052 13.7132 2.70899C13.7132 3.42746 13.4278 4.1165 12.9198 4.62453C12.5798 4.96455 12.1587 5.20485 11.7019 5.3266V14.7769C11.7019 16.5019 10.9734 17.832 9.86874 18.7158C8.78177 19.5853 7.3631 20 5.97596 20C4.58881 20 3.17014 19.5853 2.08318 18.7158C0.978478 17.832 0.25 16.5019 0.25 14.7769V10.7542C0.25 10.4721 0.419983 10.2177 0.680686 10.1097C0.941389 10.0017 1.24147 10.0614 1.441 10.2609L3.45232 12.2722C3.72478 12.5447 3.72478 12.9864 3.45232 13.2589C3.17986 13.5313 2.73812 13.5313 2.46566 13.2589L1.64535 12.4386V14.7769C1.64535 16.0688 2.17394 17.0014 2.95485 17.6262C3.75349 18.2651 4.84896 18.6047 5.97596 18.6047C7.10295 18.6047 8.19843 18.2651 8.99707 17.6262C9.77797 17.0014 10.3066 16.0688 10.3066 14.7769V5.3266C9.84983 5.20485 9.42872 4.96455 9.0887 4.62453C8.58067 4.1165 8.29525 3.42746 8.29525 2.70899C8.29525 1.99052 8.58067 1.30148 9.0887 0.793444ZM11.0042 1.39535C10.6558 1.39535 10.3217 1.53375 10.0754 1.7801C9.829 2.02646 9.6906 2.36059 9.6906 2.70899C9.6906 3.05739 9.829 3.39152 10.0754 3.63787C10.3217 3.88423 10.6558 4.02263 11.0042 4.02263C11.3526 4.02263 11.6868 3.88423 11.9331 3.63787C12.1795 3.39152 12.3179 3.05739 12.3179 2.70899C12.3179 2.36059 12.1795 2.02646 11.9331 1.7801C11.6868 1.53375 11.3526 1.39535 11.0042 1.39535Z" fill="black"/>
</svg>
