<svg width="43" height="12" viewBox="0 0 43 12" fill="none" xmlns="http://www.w3.org/2000/svg">
<path d="M2.85938 5.6748H1.05762L1.04785 4.91797H2.68359C2.95378 4.91797 3.18978 4.8724 3.3916 4.78125C3.59342 4.6901 3.74967 4.5599 3.86035 4.39062C3.97428 4.2181 4.03125 4.01302 4.03125 3.77539C4.03125 3.51497 3.98079 3.30339 3.87988 3.14062C3.78223 2.97461 3.63086 2.85417 3.42578 2.7793C3.22396 2.70117 2.9668 2.66211 2.6543 2.66211H1.26758V9H0.325195V1.89062H2.6543C3.01888 1.89062 3.3444 1.92806 3.63086 2.00293C3.91732 2.07454 4.15983 2.18848 4.3584 2.34473C4.56022 2.49772 4.71322 2.69303 4.81738 2.93066C4.92155 3.16829 4.97363 3.45312 4.97363 3.78516C4.97363 4.07812 4.89876 4.34342 4.74902 4.58105C4.59928 4.81543 4.39095 5.00749 4.12402 5.15723C3.86035 5.30697 3.55111 5.40299 3.19629 5.44531L2.85938 5.6748ZM2.81543 9H0.686523L1.21875 8.2334H2.81543C3.11491 8.2334 3.36882 8.18132 3.57715 8.07715C3.78874 7.97298 3.94987 7.8265 4.06055 7.6377C4.17122 7.44564 4.22656 7.2194 4.22656 6.95898C4.22656 6.69531 4.17936 6.46745 4.08496 6.27539C3.99056 6.08333 3.84245 5.93522 3.64062 5.83105C3.4388 5.72689 3.17839 5.6748 2.85938 5.6748H1.5166L1.52637 4.91797H3.3623L3.5625 5.19141C3.9043 5.2207 4.19401 5.31836 4.43164 5.48438C4.66927 5.64714 4.84993 5.85547 4.97363 6.10938C5.10059 6.36328 5.16406 6.64323 5.16406 6.94922C5.16406 7.39193 5.06641 7.76628 4.87109 8.07227C4.67904 8.375 4.40723 8.60612 4.05566 8.76562C3.7041 8.92188 3.29069 9 2.81543 9ZM6.17969 6.41699V6.30469C6.17969 5.92383 6.23503 5.57064 6.3457 5.24512C6.45638 4.91634 6.61589 4.63151 6.82422 4.39062C7.03255 4.14648 7.28483 3.95768 7.58105 3.82422C7.87728 3.6875 8.20931 3.61914 8.57715 3.61914C8.94824 3.61914 9.2819 3.6875 9.57812 3.82422C9.8776 3.95768 10.1315 4.14648 10.3398 4.39062C10.5514 4.63151 10.7126 4.91634 10.8232 5.24512C10.9339 5.57064 10.9893 5.92383 10.9893 6.30469V6.41699C10.9893 6.79785 10.9339 7.15104 10.8232 7.47656C10.7126 7.80208 10.5514 8.08691 10.3398 8.33105C10.1315 8.57194 9.87923 8.76074 9.58301 8.89746C9.29004 9.03092 8.95801 9.09766 8.58691 9.09766C8.21582 9.09766 7.88216 9.03092 7.58594 8.89746C7.28971 8.76074 7.03581 8.57194 6.82422 8.33105C6.61589 8.08691 6.45638 7.80208 6.3457 7.47656C6.23503 7.15104 6.17969 6.79785 6.17969 6.41699ZM7.08301 6.30469V6.41699C7.08301 6.68066 7.11393 6.92969 7.17578 7.16406C7.23763 7.39518 7.3304 7.60026 7.4541 7.7793C7.58105 7.95833 7.73893 8.09993 7.92773 8.2041C8.11654 8.30501 8.33626 8.35547 8.58691 8.35547C8.83431 8.35547 9.05078 8.30501 9.23633 8.2041C9.42513 8.09993 9.58138 7.95833 9.70508 7.7793C9.82878 7.60026 9.92155 7.39518 9.9834 7.16406C10.0485 6.92969 10.0811 6.68066 10.0811 6.41699V6.30469C10.0811 6.04427 10.0485 5.7985 9.9834 5.56738C9.92155 5.33301 9.82715 5.1263 9.7002 4.94727C9.5765 4.76497 9.42025 4.62174 9.23145 4.51758C9.0459 4.41341 8.8278 4.36133 8.57715 4.36133C8.32975 4.36133 8.11165 4.41341 7.92285 4.51758C7.7373 4.62174 7.58105 4.76497 7.4541 4.94727C7.3304 5.1263 7.23763 5.33301 7.17578 5.56738C7.11393 5.7985 7.08301 6.04427 7.08301 6.30469ZM12.7227 3.7168H13.626L13.5479 5.69434C13.5283 6.19564 13.4714 6.62858 13.377 6.99316C13.2826 7.35775 13.1621 7.66862 13.0156 7.92578C12.8691 8.17969 12.7048 8.3929 12.5225 8.56543C12.3434 8.73796 12.1579 8.88281 11.9658 9H11.5166L11.541 8.2627L11.7266 8.25781C11.834 8.13086 11.9382 8.00065 12.0391 7.86719C12.14 7.73047 12.2327 7.56934 12.3174 7.38379C12.402 7.19499 12.472 6.96549 12.5273 6.69531C12.5859 6.42188 12.6234 6.08822 12.6396 5.69434L12.7227 3.7168ZM12.9473 3.7168H16.126V9H15.2227V4.55176H12.9473V3.7168ZM11.3115 8.25781H16.8047V10.5576H15.9014V9H12.2148V10.5576H11.3066L11.3115 8.25781ZM17.5664 6.41699V6.30469C17.5664 5.92383 17.6217 5.57064 17.7324 5.24512C17.8431 4.91634 18.0026 4.63151 18.2109 4.39062C18.4193 4.14648 18.6715 3.95768 18.9678 3.82422C19.264 3.6875 19.596 3.61914 19.9639 3.61914C20.335 3.61914 20.6686 3.6875 20.9648 3.82422C21.2643 3.95768 21.5182 4.14648 21.7266 4.39062C21.9382 4.63151 22.0993 4.91634 22.21 5.24512C22.3206 5.57064 22.376 5.92383 22.376 6.30469V6.41699C22.376 6.79785 22.3206 7.15104 22.21 7.47656C22.0993 7.80208 21.9382 8.08691 21.7266 8.33105C21.5182 8.57194 21.266 8.76074 20.9697 8.89746C20.6768 9.03092 20.3447 9.09766 19.9736 9.09766C19.6025 9.09766 19.2689 9.03092 18.9727 8.89746C18.6764 8.76074 18.4225 8.57194 18.2109 8.33105C18.0026 8.08691 17.8431 7.80208 17.7324 7.47656C17.6217 7.15104 17.5664 6.79785 17.5664 6.41699ZM18.4697 6.30469V6.41699C18.4697 6.68066 18.5007 6.92969 18.5625 7.16406C18.6243 7.39518 18.7171 7.60026 18.8408 7.7793C18.9678 7.95833 19.1257 8.09993 19.3145 8.2041C19.5033 8.30501 19.723 8.35547 19.9736 8.35547C20.221 8.35547 20.4375 8.30501 20.623 8.2041C20.8118 8.09993 20.9681 7.95833 21.0918 7.7793C21.2155 7.60026 21.3083 7.39518 21.3701 7.16406C21.4352 6.92969 21.4678 6.68066 21.4678 6.41699V6.30469C21.4678 6.04427 21.4352 5.7985 21.3701 5.56738C21.3083 5.33301 21.2139 5.1263 21.0869 4.94727C20.9632 4.76497 20.807 4.62174 20.6182 4.51758C20.4326 4.41341 20.2145 4.36133 19.9639 4.36133C19.7165 4.36133 19.4984 4.41341 19.3096 4.51758C19.124 4.62174 18.9678 4.76497 18.8408 4.94727C18.7171 5.1263 18.6243 5.33301 18.5625 5.56738C18.5007 5.7985 18.4697 6.04427 18.4697 6.30469ZM25.7012 9.09766C25.3333 9.09766 24.9997 9.03581 24.7002 8.91211C24.404 8.78516 24.1484 8.60775 23.9336 8.37988C23.722 8.15202 23.5592 7.88184 23.4453 7.56934C23.3314 7.25684 23.2744 6.91504 23.2744 6.54395V6.33887C23.2744 5.90918 23.3379 5.52669 23.4648 5.19141C23.5918 4.85286 23.7643 4.56641 23.9824 4.33203C24.2005 4.09766 24.4479 3.92025 24.7246 3.7998C25.0013 3.67936 25.2878 3.61914 25.584 3.61914C25.9616 3.61914 26.2871 3.68424 26.5605 3.81445C26.8372 3.94466 27.0635 4.12695 27.2393 4.36133C27.415 4.59245 27.5452 4.86589 27.6299 5.18164C27.7145 5.49414 27.7568 5.83594 27.7568 6.20703V6.6123H23.8115V5.875H26.8535V5.80664C26.8405 5.57227 26.7917 5.3444 26.707 5.12305C26.6257 4.90169 26.4954 4.7194 26.3164 4.57617C26.1374 4.43294 25.8932 4.36133 25.584 4.36133C25.3789 4.36133 25.1901 4.40527 25.0176 4.49316C24.8451 4.5778 24.6969 4.70475 24.5732 4.87402C24.4495 5.04329 24.3535 5.25 24.2852 5.49414C24.2168 5.73828 24.1826 6.01986 24.1826 6.33887V6.54395C24.1826 6.7946 24.2168 7.0306 24.2852 7.25195C24.3568 7.47005 24.4593 7.66211 24.5928 7.82812C24.7295 7.99414 24.8939 8.12435 25.0859 8.21875C25.2812 8.31315 25.5026 8.36035 25.75 8.36035C26.069 8.36035 26.3392 8.29525 26.5605 8.16504C26.7819 8.03483 26.9756 7.86068 27.1416 7.64258L27.6885 8.07715C27.5745 8.24967 27.4297 8.41406 27.2539 8.57031C27.0781 8.72656 26.8617 8.85352 26.6045 8.95117C26.3506 9.04883 26.0495 9.09766 25.7012 9.09766ZM31.8486 7.79883L33.6455 3.7168H34.5146L32.1611 9H31.5361L29.1924 3.7168H30.0615L31.8486 7.79883ZM29.7979 3.7168V9H28.8945V3.7168H29.7979ZM33.8701 9V3.7168H34.7783V9H33.8701ZM36.9756 5.5332H38.5625C38.9889 5.5332 39.3486 5.60807 39.6416 5.75781C39.9346 5.9043 40.1559 6.10775 40.3057 6.36816C40.4587 6.62533 40.5352 6.91829 40.5352 7.24707C40.5352 7.49121 40.4928 7.7207 40.4082 7.93555C40.3236 8.14714 40.1966 8.33268 40.0273 8.49219C39.8613 8.65169 39.6546 8.77702 39.4072 8.86816C39.1631 8.95605 38.8815 9 38.5625 9H36.3164V3.7168H37.2197V8.25781H38.5625C38.8229 8.25781 39.0312 8.21061 39.1875 8.11621C39.3438 8.02181 39.4561 7.89974 39.5244 7.75C39.5928 7.60026 39.627 7.44401 39.627 7.28125C39.627 7.12174 39.5928 6.96549 39.5244 6.8125C39.4561 6.65951 39.3438 6.53255 39.1875 6.43164C39.0312 6.32747 38.8229 6.27539 38.5625 6.27539H36.9756V5.5332ZM42.415 3.7168V9H41.5117V3.7168H42.415Z" fill="black"/>
</svg>
