<svg width="21" height="20" viewBox="0 0 21 20" fill="none" xmlns="http://www.w3.org/2000/svg">
<path fill-rule="evenodd" clip-rule="evenodd" d="M0.25 10C0.25 4.47701 4.72701 0 10.25 0C15.773 0 20.25 4.47701 20.25 10C20.25 12.3956 19.4077 14.5944 18.0031 16.3164C17.9885 16.3363 17.9727 16.3555 17.9558 16.374C16.1216 18.589 13.3506 20 10.25 20C7.14262 20 4.36635 18.5828 2.53223 16.3595C2.52442 16.3505 2.51687 16.3413 2.50959 16.3319C1.09737 14.6076 0.25 12.4028 0.25 10ZM4.01684 15.9321C4.25846 15.7228 4.61035 15.4553 5.08273 15.1852C6.1399 14.581 7.8186 13.9535 10.25 13.9535C12.6814 13.9535 14.3604 14.581 15.4178 15.1853C15.89 15.4551 16.2418 15.7224 16.4835 15.9317C14.9161 17.5783 12.7029 18.6047 10.25 18.6047C7.79723 18.6047 5.58422 17.5785 4.01684 15.9321ZM17.3612 14.8462C17.0602 14.5891 16.6464 14.2803 16.1101 13.9738C14.8513 13.2544 12.9349 12.5581 10.25 12.5581C7.56512 12.5581 5.64894 13.2544 4.39029 13.9738C3.85383 14.2805 3.44003 14.5894 3.13903 14.8466C2.1965 13.4664 1.64535 11.7976 1.64535 10C1.64535 5.24764 5.49764 1.39535 10.25 1.39535C15.0024 1.39535 18.8547 5.24764 18.8547 10C18.8547 11.7974 18.3036 13.466 17.3612 14.8462ZM3.60693 16.3367C3.60657 16.3371 3.6067 16.337 3.60732 16.3362L3.60693 16.3367ZM7.78335 4.74265C8.43754 4.08845 9.32483 3.72093 10.25 3.72093C11.1752 3.72093 12.0625 4.08845 12.7167 4.74265C13.3708 5.39685 13.7384 6.28413 13.7384 7.2093C13.7384 8.13448 13.3708 9.02176 12.7167 9.67595C12.0625 10.3302 11.1752 10.6977 10.25 10.6977C9.32483 10.6977 8.43754 10.3302 7.78335 9.67595C7.12915 9.02176 6.76163 8.13448 6.76163 7.2093C6.76163 6.28413 7.12915 5.39685 7.78335 4.74265ZM10.25 5.11628C9.6949 5.11628 9.16253 5.33679 8.77001 5.72931C8.37749 6.12183 8.15698 6.6542 8.15698 7.2093C8.15698 7.76441 8.37749 8.29678 8.77001 8.68929C9.16253 9.08181 9.6949 9.30233 10.25 9.30233C10.8051 9.30233 11.3375 9.08181 11.73 8.68929C12.1225 8.29678 12.343 7.76441 12.343 7.2093C12.343 6.6542 12.1225 6.12183 11.73 5.72931C11.3375 5.33679 10.8051 5.11628 10.25 5.11628Z" fill="black"/>
</svg>
